# xmcd
#
# Track frame offsets:
#	150
#	16657
#	30652
#	45230
#	57865
#	72422
#	87515
#	103242
#	118935
#	136337
#	149892
#	162025
#	177545
#	189637
#	206972
#	222055
#	237212
#	249492
#	264052
#	279170
#
# Disc length: 3946 seconds
#
# Revision: 0
# Processed by: cddbd v1.5.1PL2 Copyright (c) Steve Scherf et al.
# Submitted via: dBpowerAMP V4.0
#
DISCID=250f6814
DTITLE=Tião Brasil and Carriel - Modão de Viola
DYEAR=2005
DGENRE=Country
TTITLE0=Chico Mulato
TTITLE1=Felicidade
TTITLE2=Desconsolo
TTITLE3=Mineiro de Monte Belo
TTITLE4=Saudade de Araraquara
TTITLE5=Carreiro sebastião
TTITLE6=A Volta do Boiadeiro
TTITLE7=Quando a Lua vem Surgindo
TTITLE8=Travessia do Araguaia
TTITLE9=Navalha na Carne
TTITLE10=Viola Cabocla
TTITLE11=Boi de Carro
TTITLE12=Feiticeiro
TTITLE13=Resposta do Couro de Boi
TTITLE14=Goiano Valente
TTITLE15=Caçador
TTITLE16=Pretinho Alejado
TTITLE17=Flor do Baile
TTITLE18=Um Estranho no Ninho
TTITLE19=Rio Tietê
EXTD=
EXTT0=
EXTT1=
EXTT2=
EXTT3=
EXTT4=
EXTT5=
EXTT6=
EXTT7=
EXTT8=
EXTT9=
EXTT10=
EXTT11=
EXTT12=
EXTT13=
EXTT14=
EXTT15=
EXTT16=
EXTT17=
EXTT18=
EXTT19=
PLAYORDER=
